<svg width="100%" height="100%" viewBox="0 0 400 300" fill="none" xmlns="http://www.w3.org/2000/svg">
  <defs>
    <linearGradient id="gradReport" x1="0%" y1="0%" x2="100%" y2="100%">
      <stop offset="0%" style="stop-color:#00BCD4;stop-opacity:1" />
      <stop offset="100%" style="stop-color:#00796B;stop-opacity:1" />
    </linearGradient>
    <filter id="shadow" x="-50%" y="-50%" width="200%" height="200%">
      <feGaussianBlur in="SourceAlpha" stdDeviation="10"/>
      <feOffset dx="0" dy="10"/>
      <feMerge>
        <feMergeNode/>
        <feMergeNode in="SourceGraphic"/>
      </feMerge>
    </filter>
  </defs>

  <rect x="100" y="60" width="200" height="180" rx="20" ry="20" fill="#E0F2F7" filter="url(#shadow)"/>
  <rect x="105" y="65" width="190" height="170" rx="15" ry="15" fill="white"/>

  <rect x="125" y="90" width="150" height="10" rx="3" fill="#B2EBF2"/>
  <rect x="125" y="115" width="130" height="10" rx="3" fill="#B2EBF2"/>
  <rect x="125" y="140" width="160" height="10" rx="3" fill="#B2EBF2"/>
  <rect x="125" y="165" width="140" height="10" rx="3" fill="#B2EBF2"/>
  <rect x="125" y="190" width="150" height="10" rx="3" fill="#B2EBF2"/>

  <circle cx="200" cy="200" r="60" stroke="url(#gradReport)" stroke-width="8" fill="none" opacity="0.8"/>
  <path d="M 160 190 C 170 170, 230 170, 240 190" stroke="url(#gradReport)" stroke-width="8" stroke-linecap="round" />
  <path d="M 170 210 C 180 230, 220 230, 230 210" stroke="url(#gradReport)" stroke-width="8" stroke-linecap="round" />
  <circle cx="200" cy="200" r="10" fill="url(#gradReport)" />
</svg>